<svg xmlns="http://www.w3.org/2000/svg" viewBox="0 0 300 80" width="300" height="80">
  <!-- ELEMENTI BOTANICI LINE ART dall'illustrazione 358.jpg -->
  <!-- Foglie delicate intorno alla conchiglia -->
  <g transform="translate(5, 15)">
    <!-- Foglia sinistra superiore -->
    <path d="M10 5 C12 3, 16 3, 18 5 C20 7, 20 11, 18 13 C16 15, 12 15, 10 13 C8 11, 8 7, 10 5 Z" 
          fill="none" stroke="#C4A484" stroke-width="0.8" opacity="0.7"/>
    <line x1="10" y1="9" x2="18" y2="9" stroke="#C4A484" stroke-width="0.5" opacity="0.7"/>
    
    <!-- Foglia destra superiore -->
    <path d="M42 5 C44 3, 48 3, 50 5 C52 7, 52 11, 50 13 C48 15, 44 15, 42 13 C40 11, 40 7, 42 5 Z" 
          fill="none" stroke="#C4A484" stroke-width="0.8" opacity="0.7"/>
    <line x1="42" y1="9" x2="50" y2="9" stroke="#C4A484" stroke-width="0.5" opacity="0.7"/>
    
    <!-- Foglia sinistra inferiore -->
    <path d="M8 30 C10 28, 14 28, 16 30 C18 32, 18 36, 16 38 C14 40, 10 40, 8 38 C6 36, 6 32, 8 30 Z" 
          fill="none" stroke="#C4A484" stroke-width="0.8" opacity="0.7"/>
    <line x1="8" y1="34" x2="16" y2="34" stroke="#C4A484" stroke-width="0.5" opacity="0.7"/>
    
    <!-- Foglia destra inferiore -->
    <path d="M44 30 C46 28, 50 28, 52 30 C54 32, 54 36, 52 38 C50 40, 46 40, 44 38 C42 36, 42 32, 44 30 Z" 
          fill="none" stroke="#C4A484" stroke-width="0.8" opacity="0.7"/>
    <line x1="44" y1="34" x2="52" y2="34" stroke="#C4A484" stroke-width="0.5" opacity="0.7"/>
  </g>

  <!-- ICONA PRINCIPALE: Conchiglia di Afrodite con dettagli botanici -->
  <g transform="translate(15, 15)">
    <!-- Conchiglia principale -->
    <path d="M25 15 C35 10, 45 15, 50 20 C55 25, 55 35, 50 40 C45 45, 35 50, 25 45 C15 40, 10 30, 15 20 C20 15, 25 15, 25 15 Z" 
          fill="#D4AF37" stroke="#B8952E" stroke-width="1"/>
    
    <!-- Linee interne della conchiglia -->
    <line x1="25" y1="20" x2="35" y2="30" stroke="#B8952E" stroke-width="0.5" opacity="0.8"/>
    <line x1="20" y1="25" x2="30" y2="35" stroke="#B8952E" stroke-width="0.5" opacity="0.8"/>
    <line x1="30" y1="25" x2="40" y2="35" stroke="#B8952E" stroke-width="0.5" opacity="0.8"/>
    
    <!-- Dettagli decorativi botanici sulla conchiglia (drappeggio etereo) -->
    <path d="M22 22 C24 20, 26 20, 28 22 C30 24, 30 26, 28 28 C26 30, 24 30, 22 28 C20 26, 20 24, 22 22 Z" 
          fill="none" stroke="#C4A484" stroke-width="0.8" opacity="0.6"/>
    
    <!-- Linee curve delicate che evocano il drappeggio dell'illustrazione -->
    <path d="M18 30 Q22 28, 26 30 Q30 32, 32 35" 
          fill="none" stroke="#C4A484" stroke-width="0.6" opacity="0.5"/>
    <path d="M32 25 Q28 23, 24 25 Q22 27, 20 30" 
          fill="none" stroke="#C4A484" stroke-width="0.6" opacity="0.5"/>
  </g>
  
  <!-- ELEMENTI BOTANICI AGGIUNTIVI intorno al testo -->
  <g transform="translate(80, 8)">
    <!-- Piccoli rametti decorativi -->
    <path d="M10 5 Q15 3, 20 5 Q25 7, 30 5" 
          fill="none" stroke="#C4A484" stroke-width="0.5" opacity="0.4"/>
    <path d="M60 5 Q65 3, 70 5 Q75 7, 80 5" 
          fill="none" stroke="#C4A484" stroke-width="0.5" opacity="0.4"/>
    
    <!-- Foglie piccole sui rametti -->
    <path d="M18 4 C19 3, 21 3, 22 4 C23 5, 23 7, 22 8 C21 9, 19 9, 18 8 C17 7, 17 5, 18 4 Z" 
          fill="none" stroke="#C4A484" stroke-width="0.4" opacity="0.6"/>
    <path d="M68 4 C69 3, 71 3, 72 4 C73 5, 73 7, 72 8 C71 9, 69 9, 68 8 C67 7, 67 5, 68 4 Z" 
          fill="none" stroke="#C4A484" stroke-width="0.4" opacity="0.6"/>
  </g>
  
  <!-- TESTO: APHRODITE in Garamond luxury -->
  <g transform="translate(80, 20)">
    <text x="0" y="25" font-family="Garamond, Georgia, serif" 
          font-size="28" font-weight="600" fill="#D4AF37" 
          letter-spacing="2">APHRODITE</text>
    
    <!-- Linea elegante -->
    <line x1="0" y1="30" x2="180" y2="30" stroke="#C9A237" stroke-width="1"/>
    
    <!-- Sottotitolo con tocco botanico -->
    <text x="0" y="50" font-family="'Helvetica Neue', Arial, sans-serif" 
          font-size="10" font-weight="300" fill="#8B7355" 
          letter-spacing="1.5">DIVINE BEAUTY</text>
    
    <!-- Decorazione botanica finale -->
    <g transform="translate(185, 45)">
      <path d="M0 5 Q5 3, 10 5 Q15 7, 20 5" 
            fill="none" stroke="#C4A484" stroke-width="0.5" opacity="0.4"/>
      <path d="M8 4 C9 3, 11 3, 12 4 C13 5, 13 7, 12 8 C11 9, 9 9, 8 8 C7 7, 7 5, 8 4 Z" 
            fill="none" stroke="#C4A484" stroke-width="0.4" opacity="0.6"/>
    </g>
  </g>
</svg>