<svg xmlns="http://www.w3.org/2000/svg" viewBox="0 0 200 60" width="200" height="60">
  <defs>
    <linearGradient id="goldGradientSimple" x1="0%" y1="0%" x2="100%" y2="0%">
      <stop offset="0%" style="stop-color:#D4AF37;stop-opacity:1" />
      <stop offset="100%" style="stop-color:#B8952E;stop-opacity:1" />
    </linearGradient>
  </defs>
  
  <!-- Profilo femminile stilizzato semplificato -->
  <g transform="translate(15, 10)">
    <path d="M8 12 C12 8, 18 8, 20 12 C21 14, 21 16, 19 18 C18 19, 17 20, 16 22 C15 23, 14 24, 13 25 C11 26, 10 27, 10 28 C10 30, 11 31, 12 32 C14 34, 15 35, 16 37 C17 39, 17 40, 16 41 C15 42, 14 42, 13 41 C12 40, 11 38, 10 36 C9 33, 8 30, 8 27 C8 24, 9 20, 11 17 C12 15, 11 14, 8 12 Z" 
          fill="url(#goldGradientSimple)"/>
    
    <!-- Acconciatura -->
    <path d="M6 10 C5 8, 4 6, 5 5 C8 3, 12 3, 16 5 C18 6, 19 8, 20 10 C20 12, 19 14, 18 16 C17 18, 16 20, 15 22 C14 23, 13 24, 12 25 C11 26, 10 27, 10 28 C10 30, 11 31, 12 32 C14 32, 15 31, 16 30 C17 29, 18 28, 18 27 C19 26, 19 25, 19 24 C19 23, 18 22, 17 21 C16 20, 15 19, 14 18 C13 17, 12 16, 11 15 C10 14, 9 13, 8 12 C7 11, 6 11, 6 10 Z" 
          fill="url(#goldGradientSimple)" opacity="0.7"/>
  </g>
  
  <!-- NomeAPHRODITE -->
  <text x="120" y="35" text-anchor="start" font-family="Georgia, 'Times New Roman', serif" 
        font-size="20" font-weight="300" fill="url(#goldGradientSimple)" 
        letter-spacing="1">APHRODITE</text>
</svg>