<svg xmlns="http://www.w3.org/2000/svg" viewBox="0 0 300 80" width="300" height="80">
  <defs>
    <linearGradient id="goldGradient" x1="0%" y1="0%" x2="100%" y2="0%">
      <stop offset="0%" style="stop-color:#D4AF37;stop-opacity:1" />
      <stop offset="100%" style="stop-color:#B8952E;stop-opacity:1" />
    </linearGradient>
  </defs>
  
  <!-- Profilo femminile stilizzato semplificato -->
  <g transform="translate(20, 15)">
    <path d="M10 20 C15 15, 25 15, 28 20 C29 22, 29 25, 27 27 C25 29, 23 30, 20 32 C18 33, 16 35, 15 37 C14 38, 14 39, 15 40 C16 41, 18 41, 20 40 C22 39, 24 38, 25 37 C26 36, 27 35, 27 34 C27 33, 26 32, 25 31 C24 30, 22 29, 20 28 C18 27, 16 26, 15 25 C14 24, 13 23, 12 22 C11 21, 10 21, 10 20 Z" fill="url(#goldGradient)"/>
  </g>
  
  <!-- Nome APHRODITE -->
  <text x="110" y="45" text-anchor="start" font-family="Georgia, 'Times New Roman', serif" 
        font-size="24" font-weight="300" fill="url(#goldGradient)" 
        letter-spacing="1">APHRODITE</text>
        
  <!-- Sotto-titolo -->
  <text x="110" y="65" text-anchor="start" font-family="'Helvetica Neue', Arial, sans-serif" 
        font-size="10" font-weight="300" fill="#8B7355" 
        letter-spacing="0.5">ELEGANZA DIVINA</text>
</svg>